<?xml version="1.0" standalone="no"?><!DOCTYPE svg PUBLIC "-//W3C//DTD SVG 1.1//EN" "http://www.w3.org/Graphics/SVG/1.1/DTD/svg11.dtd"><svg t="1735272506352" class="icon" viewBox="0 0 1024 1024" version="1.1" xmlns="http://www.w3.org/2000/svg" p-id="4983" xmlns:xlink="http://www.w3.org/1999/xlink" width="200" height="200"><path d="M891.392 766.976H132.608c-38.4 0-68.608-30.208-68.608-68.608V227.84c0-38.4 30.208-68.608 68.608-68.608H890.88c38.4 0 68.608 30.208 68.608 68.608v470.528c0.512 38.4-29.696 68.608-68.096 68.608zM132.608 190.976c-20.992 0-36.864 15.872-36.864 36.864v470.528c0 20.992 15.872 36.864 36.864 36.864H890.88c20.992 0 36.864-15.872 36.864-36.864V227.84c0-20.992-15.872-36.864-36.864-36.864H132.608z" p-id="4984" fill="#707070"></path><path d="M448 644.096s-1.536 0 0 0c-19.456 0-35.328-8.192-46.592-19.456-11.264-12.8-17.408-28.672-17.408-46.592V349.696c0-12.8 3.072-27.136 12.8-38.4 9.728-14.336 24.064-22.528 41.472-25.6 17.408-3.072 33.792 1.536 48.128 11.264l161.792 113.664c6.656 4.608 12.8 9.728 15.872 15.872 20.992 30.208 14.336 72.192-15.872 92.672L486.4 632.832c-12.8 8.192-25.6 11.264-38.4 11.264z m0-328.192h-4.608c-8.192 1.536-16.384 6.656-20.992 12.8-4.608 6.656-6.656 12.8-6.656 19.456v230.4c0 9.728 3.072 17.408 9.728 22.528 6.656 6.656 14.336 9.728 22.528 9.728 6.656 0 14.336-1.536 19.456-6.656l161.792-113.664c8.192-4.608 12.8-12.8 14.336-22.528 1.536-9.728 0-19.456-6.656-25.6-1.536-3.072-4.608-6.656-8.192-8.192L467.456 321.024c-6.656-3.584-12.8-5.12-19.456-5.12zM302.592 864.768c-8.192 0-14.336-6.656-15.872-14.336-1.536-8.192 4.608-17.408 12.8-17.408l219.136-32.256h4.608l227.328 32.256c8.192 1.536 14.336 9.728 14.336 17.408s-9.728 14.336-17.408 14.336l-224.256-32.256-216.064 32.256h-4.608z" p-id="4985" fill="#707070"></path><path d="M527.872 830.976c-9.728 0-15.872-6.656-15.872-15.872V783.36c0-9.728 6.656-15.872 15.872-15.872s15.872 6.656 15.872 15.872v32.256c0.512 9.216-6.144 15.36-15.872 15.36z" p-id="4986" fill="#707070"></path></svg>