<?xml version="1.0" standalone="no"?><!DOCTYPE svg PUBLIC "-//W3C//DTD SVG 1.1//EN" "http://www.w3.org/Graphics/SVG/1.1/DTD/svg11.dtd"><svg t="1735443639381" class="icon" viewBox="0 0 1024 1024" version="1.1" xmlns="http://www.w3.org/2000/svg" p-id="13109" xmlns:xlink="http://www.w3.org/1999/xlink" width="200" height="200"><path d="M175.0016 239.3088m102.4 0l585.4208 0q102.4 0 102.4 102.4l0 499.0976q0 102.4-102.4 102.4l-585.4208 0q-102.4 0-102.4-102.4l0-499.0976q0-102.4 102.4-102.4Z" fill="#FFF3AE" p-id="13110"></path><path d="M524.544 561.8176H451.584a25.6 25.6 0 0 1 0-51.2h72.96a25.6 25.6 0 0 1 0 51.2zM524.544 715.3664H451.584a25.6 25.6 0 0 1 0-51.2h72.96a25.6 25.6 0 1 1 0 51.2zM297.728 561.8176H224.8192a25.6 25.6 0 1 1 0-51.2h72.9088a25.6 25.6 0 0 1 0 51.2zM297.728 715.3664H224.8192a25.6 25.6 0 0 1 0-51.2h72.9088a25.6 25.6 0 1 1 0 51.2zM753.4592 561.8176h-72.96a25.6 25.6 0 0 1 0-51.2h72.96a25.6 25.6 0 0 1 0 51.2z" fill="#333333" p-id="13111"></path><path d="M780.7488 133.12h-72.0896v-37.2736a25.6 25.6 0 0 0-51.2 0V133.12H318.6176v-37.2736a25.6 25.6 0 0 0-51.2 0V133.12H195.328a128 128 0 0 0-128 128v499.0976a128 128 0 0 0 128 128h585.4208a128 128 0 0 0 128-128V261.12a128 128 0 0 0-128-128zM195.328 184.32h72.0896v44.4928a25.6 25.6 0 0 0 51.2 0V184.32h338.8416v44.4928a25.6 25.6 0 0 0 51.2 0V184.32h72.0896a76.8 76.8 0 0 1 76.8 76.8v61.7472H118.528V261.12a76.8 76.8 0 0 1 76.8-76.8z m585.4208 652.6976H195.328a76.8 76.8 0 0 1-76.8-76.8V374.0672h739.0208v386.1504a76.8 76.8 0 0 1-76.8 76.8z" fill="#333333" p-id="13112"></path></svg>